<svg width="23" height="22" viewBox="0 0 23 22" fill="none" xmlns="http://www.w3.org/2000/svg">
<path fill-rule="evenodd" clip-rule="evenodd" d="M3.99692 10C3.99692 14.3229 7.53041 18 12.0969 18C16.6634 18 20.1969 14.3229 20.1969 10C20.1969 5.67715 16.6634 2 12.0969 2C7.53041 2 3.99692 5.67715 3.99692 10ZM5.4896 17.5064C7.25153 19.0585 9.56427 20 12.0969 20C17.6198 20 22.0969 15.5228 22.0969 10C22.0969 4.47715 17.6198 0 12.0969 0C6.57408 0 2.09692 4.47715 2.09692 10C2.09692 12.3724 2.92308 14.5519 4.30338 16.2664L2.47955e-05 20.427L1.23439 21.6204L5.4896 17.5064Z" fill="#C283F3"/>
</svg>
